<svg version="1.0" xmlns="http://www.w3.org/2000/svg" width="450.000000pt" height="450.000000pt"
    viewBox="0 0 450.000000 450.000000" preserveAspectRatio="xMidYMid meet">
    <g transform="translate(0.000000,450.000000) scale(0.100000,-0.100000)" fill="#E8EDED"
        stroke="none">
        <path
            d="M899 3123 c0 -5 0 -44 1 -88 1 -44 5 -372 9 -730 l7 -650 26 -67 c35 -93 78 -156 158 -232 179 -168 432 -211 644 -108 88 43 201 136 192 158 -3 8 0 13 7 11 7 -1 11 6 11 15 -1 10 2 16 6 13 11 -7 33 29 61 100 23 60 24 63 29 542 l5 481 30 44 c83 118 251 116 362 -5 58 -63 75 -107 77 -197 1 -63 -4 -84 -27 -132 -47 -95 -141 -158 -238 -158 -70 0 -69 2 -69 -145 0 -161 11 -224 51 -290 40 -67 310 -343 379 -389 165 -110 384 -138 572 -75 189 63 349 232 403 424 15 53 18 146 22 773 l5 712 -28 0 c-108 -1 -260 -39 -305 -77 -62 -53 -61 -37 -60 -695 1 -400 -2 -611 -9 -638 -23 -86 -126 -160 -224 -160 -98 0 -121 13 -261 153 l-129 130 24 16 c201 131 298 322 287 566 -8 194 -72 341 -208 475 -130 129 -262 184 -444 183 -268 -1 -494 -149 -581 -379 -16 -44 -18 -97 -23 -509 -7 -512 -4 -496 -77 -552 -30 -22 -47 -27 -93 -28 -73 0 -129 34 -160 97 -21 44 -21 54 -21 617 0 411 -3 585 -12 613 -16 53 -79 122 -130 143 -67 27 -267 55 -269 38z m28 -1410 c-4 -3 -7 0 -7 7 0 7 3 10 7 7 3 -4 3 -10 0 -14z" />
    </g>
</svg>
